/* XPM */
static char *f75696a671964b22c597d0ac208e92c7L3PmUn5QrFccHAwX[] = {
/* columns rows colors chars-per-pixel */
"32 32 2 1 ",
"  c black",
". c #FFAF2C",
/* pixels */
"                                ",
"                                ",
"                                ",
"                                ",
"                                ",
"                                ",
"             .. ....            ",
"           ..  .......          ",
"         ...  .........         ",
"        ...  ...  .  ...        ",
"        ..  ....  .  ....       ",
"       ..  ...        ...       ",
"       .. ....         ...      ",
"       .  .....   ...  ...      ",
"      ..  .....   ...  ....     ",
"      ..  .....   ...  ....     ",
"      ..  .....       .....     ",
"      ..  .....   ...  ....     ",
"      ..  .....   ....  ...     ",
"       .  .....   ....  ...     ",
"       ..  ....   ...   ..      ",
"        .. ...         ...      ",
"        ..  ..        ...       ",
"         ..  ...  .  ....       ",
"          ..  ..  .  ...        ",
"           ..  ........         ",
"             .. .....           ",
"                                ",
"                                ",
"                                ",
"                                ",
"                                "
};
