/* XPM */
static char *_6fd75db500d4d88b14fbb7efb51ecf3QpWpC2LJkLOVPbAS[] = {
/* columns rows colors chars-per-pixel */
"32 32 2 1 ",
"  c black",
". c red",
/* pixels */
"                                ",
"                                ",
"                                ",
"                                ",
"                                ",
"        .....                   ",
"       .......                  ",
"      .........                 ",
"      .........                 ",
"      .........                 ",
"      .........                 ",
"      .........    .....        ",
"       .......    .......       ",
"        .......  .........      ",
"             .............      ",
"             .............      ",
"            ...  .........      ",
"        ......   .........      ",
"       .......    .......       ",
"      .........    .....        ",
"      .........                 ",
"      .........                 ",
"      .........                 ",
"      .........                 ",
"       .......                  ",
"        .....                   ",
"                                ",
"                                ",
"                                ",
"                                ",
"                                ",
"                                "
};
