/* XPM */
static char *_9cf30d8e6e541079445a4359497ba05vcwuJnJDE9IUkA5o[] = {
/* columns rows colors chars-per-pixel */
"32 32 2 1 ",
"  c black",
". c red",
/* pixels */
"                                ",
"                                ",
"                                ",
"                                ",
"                                ",
"                   .....        ",
"                  .......       ",
"                 .........      ",
"                 .........      ",
"                 .........      ",
"                 .........      ",
"        .....    .........      ",
"       .......    .......       ",
"      .........  .......        ",
"      ..............            ",
"      .............             ",
"      .........  ...            ",
"      .........   ......        ",
"       .......    .......       ",
"        .....    .........      ",
"                 .........      ",
"                 .........      ",
"                 .........      ",
"                 .........      ",
"                  .......       ",
"                   .....        ",
"                                ",
"                                ",
"                                ",
"                                ",
"                                ",
"                                "
};
