/* XPM */
static char *_d8f71100bea47dbaa2a06097d90157at5GCTXkwR6VKE9oT[] = {
/* columns rows colors chars-per-pixel */
"32 32 2 1 ",
"  c black",
". c white",
/* pixels */
"                                ",
"             ......             ",
"            ...  ...            ",
"           ..       .           ",
"           ..       ..          ",
"          ..        ..          ",
"          .. ... .....          ",
"          .. ..  .. ..          ",
"          ..         .          ",
"          ..   .     .      ..  ",
"           .  .....  .      . . ",
"           ....   ....     .... ",
"           ..  ..  ..     ....  ",
"            ..    ..     ....   ",
"             ......    .....    ",
"         .... .... ........     ",
"        ......    ........      ",
"        ......   ........       ",
"       ...   . . . .....        ",
"      .... ...   . ...          ",
"     .....   . . . ...          ",
"     ... . ...   . ...          ",
"   ....  .   . . .   .          ",
"   . .   .....   .....          ",
"    ..                   .      ",
"         .............   .      ",
"      . ................ .      ",
"      . ....... ........ .      ",
"      . .....     ...... .      ",
"      .                         ",
"      .                         ",
"                                "
};
