/* XPM */
static char *_3fc7b2f60bb47f9b366133541921450KlYsiebzc6z8KYqR[] = {
/* columns rows colors chars-per-pixel */
"32 32 2 1 ",
"  c black",
". c white",
/* pixels */
"                                ",
"             ......             ",
"            ...  ...            ",
"           ..       .           ",
"           ..       ..          ",
"          ..        ..          ",
"          .. ... .....          ",
"          .. ..  .. ..          ",
"          ..         .          ",
"          ..   .     .          ",
"           .  .....  .          ",
"           ....   ....          ",
"           ..  ..  ..           ",
"            ..    ..            ",
"             ......             ",
"         .... .... ...          ",
"        ......    .....         ",
"        ......   .......        ",
"       ...   . . . ......       ",
"      .... ...   . .......      ",
"     .....   . . . ... ...      ",
"     ... . ...   . ...  ...     ",
"   ....  .   . . .   .   ....   ",
"   . .   .....   .....    . .   ",
"    ..                   ...    ",
"         .............   .      ",
"      . ................ .      ",
"      . ....... ........ .      ",
"      . .....     ...... .      ",
"      .                         ",
"      .                         ",
"                                "
};
