/* XPM */
static char *_5b6471a077d4f7a8613de38eb91a04dsGJb1f3qPEvCyZUq[] = {
/* columns rows colors chars-per-pixel */
"32 32 2 1 ",
"  c black",
". c white",
/* pixels */
"                                ",
"             ......             ",
"            ...  ...            ",
"           ..       .           ",
"           ..       ..          ",
"          ..        ..          ",
"   . .    .. ... .....   . .    ",
"   . .    .. ..  .. ..   . .    ",
"   ...    ..         .   ...    ",
"  .....   ..   .     .  .....   ",
"   ...     .  .....  .   ...    ",
"    .      ....   ....    .     ",
"   ...     ..  ..  ..    ...    ",
"   ...      ..    ..    ....    ",
"   ....      ......    .....    ",
"    ......... .... ........     ",
"     .........    ........      ",
"      ........   .........      ",
"       ...   . . . ......       ",
"         . ...   . ...          ",
"         .   . . . ...          ",
"         . ...   . ...          ",
"         .   . . .   .          ",
"         .....   .....          ",
"                                ",
"         .............          ",
"         .............          ",
"         .....   .....          ",
"         .....   .....          ",
"                                ",
"       .......   .......        ",
"                                "
};
