/* XPM */
static char *dbd9ac47fa554181852fdcf15526ae0fo6CrXXWhUZHfu5TF[] = {
/* columns rows colors chars-per-pixel */
"32 32 2 1 ",
"  c black",
". c white",
/* pixels */
"                                ",
"             ......             ",
"            ...  ...            ",
"           ..       .           ",
"           ..       ..          ",
"          ..        ..          ",
"          .. ... .....          ",
"          .. ..  .. ..          ",
"          ..         .          ",
"  ..      ..   .     .          ",
" . .       .  .....  .          ",
" ....      ....   ....          ",
"  ....     ..  ..  ..           ",
"   ....     ..    ..            ",
"   .....     ......             ",
"    ......... .... ...          ",
"      ........    .....         ",
"       .......   .......        ",
"         .   . . . ......       ",
"         . ...   . .......      ",
"         .   . . . ... ...      ",
"         . ...   . ...  ...     ",
"         .   . . .   .   ....   ",
"         .....   .....    . .   ",
"                         ...    ",
"         .............   .      ",
"      . ................ .      ",
"      . ....... ........ .      ",
"      . .....     ...... .      ",
"      .                         ",
"      .                         ",
"                                "
};
