/* XPM */
static char *_30f433b59dc4db0fd556d27aa4f6e40Z1TY53wFT2ZhT18e[] = {
/* columns rows colors chars-per-pixel */
"32 32 2 1 ",
"  c black",
". c #5CC9FF",
/* pixels */
"                                ",
"                                ",
"                                ",
"                                ",
"                                ",
"        .....                   ",
"       .......                  ",
"      .........                 ",
"      .........                 ",
"      .........                 ",
"      .........    .....        ",
"      .........   .......       ",
"       .......   .........      ",
"        .......  .........      ",
"            ..............      ",
"             .............      ",
"            ...  .........      ",
"        .......   .......       ",
"       .......     .....        ",
"      .........                 ",
"      .........                 ",
"      .........                 ",
"      .........                 ",
"      .........                 ",
"       .......                  ",
"        .....                   ",
"                                ",
"                                ",
"                                ",
"                                ",
"                                ",
"                                "
};
