/* XPM */
static char *_2d6868ae60f4deaae258907b5c743e4tPw4Ya4NIbVtOslV[] = {
/* columns rows colors chars-per-pixel */
"32 32 157 2 ",
"   c None",
".  c black",
"X  c #000E0B",
"o  c #00100B",
"O  c #000011",
"+  c #1F001D",
"@  c #12031B",
"#  c #001F17",
"$  c #002D10",
"%  c #00201B",
"&  c #000820",
"*  c #150224",
"=  c #170E20",
"-  c #1C1527",
";  c #320021",
":  c #38182A",
">  c #152A2A",
",  c #023F2E",
"<  c #1B2B38",
"1  c #27252E",
"2  c #2E2D35",
"3  c #2D3438",
"4  c #38343C",
"5  c #7B1B00",
"6  c #570026",
"7  c #5D003A",
"8  c #6B2F34",
"9  c #700056",
"0  c #7F0055",
"q  c #7C005F",
"w  c #472F43",
"e  c #403640",
"r  c #443C46",
"t  c #5C354F",
"y  c #5F3A51",
"u  c #612956",
"i  c #762C56",
"p  c #673D56",
"a  c #6A3857",
"s  c #753C5B",
"d  c #761F60",
"f  c #753F64",
"g  c #3D7258",
"h  c #515155",
"j  c #70405C",
"k  c #7C416D",
"l  c #6C5D6A",
"z  c #765C6D",
"x  c #6C6A6E",
"c  c #6F6E74",
"v  c #787278",
"b  c #717072",
"n  c #A61F00",
"m  c #860222",
"M  c #921C5F",
"N  c #810861",
"B  c #870063",
"V  c #9B006C",
"C  c #910070",
"Z  c #9F0077",
"A  c #9E007D",
"S  c #A3007C",
"D  c #80376A",
"F  c #902E77",
"G  c #953577",
"H  c #865D76",
"J  c #84777E",
"K  c #0C9173",
"L  c #B69233",
"P  c #E3940E",
"I  c #E8892A",
"U  c #D2C357",
"Y  c #A60081",
"T  c #B31E90",
"R  c #B5218D",
"E  c #A33586",
"W  c #B93C8F",
"Q  c #BF2790",
"!  c #BD349B",
"~  c #C03B9F",
"^  c #CC3AA6",
"/  c #AC4687",
"(  c #B6408C",
")  c #966887",
"_  c #996B89",
"`  c #857580",
"'  c #907B8B",
"]  c #C6439D",
"[  c #C14B91",
"{  c #C65397",
"}  c #CA549C",
"|  c #C65498",
" . c #CC4BA5",
".. c #D147AC",
"X. c #D84FAE",
"o. c #D24DA6",
"O. c #CF54A0",
"+. c #D658A9",
"@. c #DB5BAA",
"#. c #D956AB",
"$. c #7C8C8C",
"%. c #48B785",
"&. c #86858B",
"*. c #838281",
"=. c #8D8E90",
"-. c #9E8296",
";. c #8F9092",
":. c #969699",
">. c #9B9B9D",
",. c #979297",
"<. c #A9869C",
"1. c #9F9DA1",
"2. c #AD88A2",
"3. c #AF92A7",
"4. c #B99EB1",
"5. c #A4A5A6",
"6. c #A5A6A9",
"7. c #AAADAD",
"8. c #A6A8AA",
"9. c #B3A0AC",
"0. c #ACADB1",
"q. c #B5ACB4",
"w. c #B8AFB6",
"e. c #BEADBC",
"r. c #B1B2B5",
"t. c #BBBABE",
"y. c #B5B7BA",
"u. c #C29DB8",
"i. c #E399B5",
"p. c #CEACC4",
"a. c #C8B9C4",
"s. c #D4BBCC",
"d. c #D5B1CB",
"f. c #DABBD1",
"g. c #ECBDC9",
"h. c #C6C5CA",
"j. c #C5CCCB",
"k. c #D6C7D3",
"l. c #D7DDDE",
"z. c #D8D5D9",
"x. c #DBDFE1",
"c. c #EFCCE5",
"v. c #E2D5E0",
"b. c #EFDDEB",
"n. c #F3DAEC",
"m. c #DAE1E1",
"M. c #E1E5E7",
"N. c #E9E8EB",
"B. c #F6E4EA",
"V. c #EAEFF1",
"C. c #F5EDF5",
"Z. c #EFF4F5",
"A. c #F2F3F6",
"S. c #F4F4F9",
"D. c #FBF6FD",
"F. c #F6FCFE",
"G. c #FDFEFF",
/* pixels */
"                                                                ",
"                                                                ",
"                                                                ",
"                                                                ",
"        g                                                       ",
"      + %.K                                                     ",
"        g U L             &                                     ",
"        : P I m < p t . >.A.=.                                  ",
"          8 n 5 W ~ V ,.g.g.$.                                  ",
"          1 M [ R H 5.B.i.&.                                    ",
"          E ! B _ b.G.V.<.i                                     ",
"        3.G f a.w.:.S.l.0 +.j                                   ",
"      r.D.m.x.G.7.. V.M.9 ^ O.a                   w r           ",
"      p.G.G.n.F.A.V.F.D.9.C #.~ a 2 x x b       / @.O.j         ",
"      s.G.A.b.F.F.G.F.G.z.N ! ..Q *.G.F.F.1., F ^ O.@.} %       ",
"      >.G.G.G.G.G.C.A.F.G.a.q  .B w.G.F.G.G.  6 R ^ o.{ X       ",
"        :.y.q.r.8.v.D.F.G.G.v Z z D.G.F.F.G.G.v.) T +.{ X       ",
"                . j.G.F.F.G.M.H s.G.F.F.F.F.G.D.<.A X.| #       ",
"                . h.G.F.F.F.G.Z.F.F.F.G.D.F.F.G.5.Y +.y         ",
"                  4.G.G.F.F.F.G.F.F.F.F.F.F.F.G.7.S @.j $ e     ",
"                  . x.G.F.F.F.G.G.F.F.G.F.F.F.G.7.Z ..} s       ",
"                  . k.G.G.F.F.  G.G.D.S.G.G.F.G.7.7 ! ^ W       ",
"                  3 c.k.t.G.G.x ; ;.` u.G.D.G.G.5.. k d u       ",
"                  > N.p.=.G.5.  l f.d.-.<.G.G.D.z               ",
"                  = A.l.:.G.&.  v N.D.' . a.G.j.                ",
"                  @ G.M.:.G.;.    j.S.=.  q.C.<.                ",
"                  1 t.8.b h.c   h h.=.  r e.6..                 ",
"                  4 . . * . -   @ . *   2 . O 4                 ",
"                                                                ",
"                                                                ",
"                                                                ",
"                                                                "
};
